<?xml version="1.0" standalone="no"?><!DOCTYPE svg PUBLIC "-//W3C//DTD SVG 1.1//EN" "http://www.w3.org/Graphics/SVG/1.1/DTD/svg11.dtd"><svg t="1780157800101" class="icon" viewBox="0 0 1024 1024" version="1.1" xmlns="http://www.w3.org/2000/svg" p-id="7453" xmlns:xlink="http://www.w3.org/1999/xlink" width="200" height="200"><path d="M631.808 940.032H197.632c-77.824 0-141.312-63.488-141.312-141.312V364.544c0-77.824 63.488-141.312 141.312-141.312h434.176c70.656 0 130.048 52.224 140.288 119.808 19.456-12.288 43.008-19.456 67.584-19.456 70.656 0 128 57.344 128 128v261.12c0 40.96-20.48 79.872-54.272 104.448-14.336 10.24-32.768 6.144-43.008-7.168-10.24-14.336-6.144-32.768 7.168-43.008 17.408-12.288 28.672-32.768 28.672-54.272V450.56c0-36.864-29.696-66.56-66.56-66.56s-66.56 29.696-66.56 66.56c0 17.408-13.312 30.72-30.72 30.72s-30.72-13.312-30.72-30.72v-87.04c0-44.032-35.84-79.872-79.872-79.872H197.632c-44.032 0-79.872 35.84-79.872 79.872V798.72c0 44.032 35.84 79.872 79.872 79.872h434.176c44.032 0 79.872-35.84 79.872-79.872v-87.04c0-17.408 13.312-30.72 30.72-30.72s30.72 13.312 30.72 30.72c0 26.624 16.384 51.2 41.984 61.44 15.36 6.144 23.552 24.576 17.408 39.936-6.144 15.36-24.576 23.552-39.936 17.408-7.168-3.072-14.336-6.144-20.48-10.24-10.24 67.584-69.632 119.808-140.288 119.808z" p-id="7454" fill="#c9a961"></path><path d="M262.144 279.552c-17.408 0-30.72-13.312-30.72-30.72V114.688c0-17.408 13.312-30.72 30.72-30.72s30.72 13.312 30.72 30.72v134.144c0 17.408-13.312 30.72-30.72 30.72zM419.84 279.552c-17.408 0-30.72-13.312-30.72-30.72V114.688c0-17.408 13.312-30.72 30.72-30.72s30.72 13.312 30.72 30.72v134.144c0 17.408-14.336 30.72-30.72 30.72zM576.512 279.552c-17.408 0-30.72-13.312-30.72-30.72V114.688c0-17.408 13.312-30.72 30.72-30.72s30.72 13.312 30.72 30.72v134.144c0 17.408-13.312 30.72-30.72 30.72z" p-id="7455" fill="#c9a961"></path></svg>