<?xml version="1.0" standalone="no"?><!DOCTYPE svg PUBLIC "-//W3C//DTD SVG 1.1//EN" "http://www.w3.org/Graphics/SVG/1.1/DTD/svg11.dtd"><svg t="1780157839754" class="icon" viewBox="0 0 1024 1024" version="1.1" xmlns="http://www.w3.org/2000/svg" p-id="10764" xmlns:xlink="http://www.w3.org/1999/xlink" width="200" height="200"><path d="M812.490284 198.323904c-19.105127-25.337061-61.385069-44.462654-98.257862-44.462654H309.592592c-36.868699 0-79.103616 19.147082-98.130971 44.39307L81.327772 328.690044C60.081888 356.911806 61.197292 400.465764 83.91469 427.758364l378.275369 418.512792c12.595876 15.143908 30.79026 23.86657 49.864688 23.866571 18.99768 0 37.102013-8.674567 49.582255-23.728425l378.302999-418.575214c22.965038-27.586288 24.029276-69.883627 2.434445-98.452289L812.490284 198.323904z m-295.756981 0.367367l167.587879 168.154791H339.72896l167.571506-168.154791h9.432837z m-207.119221 0h174.7193L319.442938 364.124068l-40.996717-158.458965c10.157337-4.252861 21.37482-6.973832 31.167861-6.973832z m-187.234335 155.335835l130.120546-130.428562c1.934049-2.568499 4.627391-5.030573 7.64205-7.39441l38.971594 150.652161H118.119723c-0.451278 0-0.839111 0.192382-1.284249 0.234338 1.025353-4.871961 2.801812-9.425673 5.544273-13.063527zM511.56663 799.583834L360.309694 469.397716c-2.486634-5.802146-9.743922-8.625448-16.131399-6.369057-6.411013 2.322905-9.528004 8.803503-7.04444 14.557554l147.98031 323.059813-361.380584-399.824151c-2.693342-3.25309-4.64888-7.257288-5.974062-11.598153 0.12996 0 0.237407 0.072655 0.361227 0.072655H307.179636l8.320503 18.824741c-0.349971 1.935072-0.357134 3.924379 0.483 5.897314l4.354168 9.982351c1.935072 4.455475 6.624884 7.114025 11.598153 7.114025 1.50426 0 3.049452-0.220011 4.533246-0.772596 6.411013-2.207271 9.562796-8.755408 7.027044-14.557554l-0.916882-2.091638c0.370437-1.941212 0.3776-3.939729-0.465605-5.907547l-8.201799-18.489096h353.990267L511.56663 799.583834z m388.617925-398.638139L536.781918 803.031353 714.598766 389.296377h191.595666c-1.308809 4.327562-3.281743 8.354272-6.009877 11.649318z m-185.880501-34.099633l25.755594-75.958995c4.13518-5.071506 3.106758-12.07399-2.29323-15.687284-5.441942-3.595898-13.221116-2.427282-17.404391 2.664689l-25.29613 76.697823L539.71369 198.698434h174.519756c7.90504 0 16.733103 1.7519 25.177425 4.647857l-5.975084 28.989242c-4.202719 4.976338-3.223415 12.028964 2.189875 15.693423 2.840698 1.936095 6.39464 2.50096 9.689686 1.885954 2.945075-0.524956 5.735631-2.007727 7.6881-4.368494l9.730618-30.181393c3.498684 2.622734 6.568602 5.393847 8.738012 8.28264l129.874953 130.995473c2.63092 3.494591 4.40738 7.712659 5.50641 12.214183H714.304054v-0.011257z" p-id="10765" fill="#c9a961"></path></svg>